<svg class="gold-botanical-branch branch-left" viewBox="0 0 70 26" width="48" height="18" fill="none" xmlns="http://www.w3.org/2000/svg">
  <defs>
    <linearGradient id="goldGradBranch" x1="0%" y1="0%" x2="100%" y2="100%">
      <stop offset="0%" stop-color="#f0d18a" />
      <stop offset="40%" stop-color="#dfaf56" />
      <stop offset="100%" stop-color="#b8832a" />
    </linearGradient>
  </defs>
  <!-- Main Stem -->
  <path d="M 66,13 C 45,13 25,12 5,13" stroke="url(#goldGradBranch)" stroke-width="1.4" stroke-linecap="round" />
  <!-- Leaves -->
  <g>
    <path d="M 6.0,13.0 Q 3.2,10.6 0.5,13.0 Q 3.2,15.4 6.0,13.0 Z" fill="url(#goldGradBranch)" />
      <path d="M 15.0,12.8 Q 13.6,6.5 7.5,4.5 Q 8.9,10.8 15.0,12.8 Z" fill="url(#goldGradBranch)" />
      <path d="M 24.0,13.0 Q 17.9,15.1 17.0,21.5 Q 23.1,19.4 24.0,13.0 Z" fill="url(#goldGradBranch)" />
      <path d="M 33.0,12.8 Q 31.9,6.1 25.5,3.8 Q 26.6,10.5 33.0,12.8 Z" fill="url(#goldGradBranch)" />
      <path d="M 42.0,13.0 Q 35.6,15.4 35.0,22.2 Q 41.4,19.8 42.0,13.0 Z" fill="url(#goldGradBranch)" />
      <path d="M 51.0,12.8 Q 49.9,6.2 43.5,4.2 Q 44.6,10.8 51.0,12.8 Z" fill="url(#goldGradBranch)" />
      <path d="M 60.0,13.0 Q 53.8,15.3 53.0,21.8 Q 59.2,19.5 60.0,13.0 Z" fill="url(#goldGradBranch)" />
  </g>
  <!-- Leaf Veins -->
  <g>
    <path d="M 15,12.8 L 9,6" stroke="#b57e28" stroke-width="0.75" stroke-linecap="round" opacity="0.7" />
      <path d="M 24,13.0 L 18.5,19.5" stroke="#b57e28" stroke-width="0.75" stroke-linecap="round" opacity="0.7" />
      <path d="M 33,12.8 L 27,5.5" stroke="#b57e28" stroke-width="0.75" stroke-linecap="round" opacity="0.7" />
      <path d="M 42,13.0 L 36.5,20" stroke="#b57e28" stroke-width="0.75" stroke-linecap="round" opacity="0.7" />
      <path d="M 51,12.8 L 45,6" stroke="#b57e28" stroke-width="0.75" stroke-linecap="round" opacity="0.7" />
      <path d="M 60,13.0 L 54.5,19.8" stroke="#b57e28" stroke-width="0.75" stroke-linecap="round" opacity="0.7" />
  </g>
</svg>